# xmcd
#
# Track frame offsets:
#	150
#	12602
#	27807
#	41717
#	58082
#	74122
#	90870
#	104290
#	120007
#	137402
#	152450
#	169687
#
# Disc length: 2433 seconds
#
# Revision: 0
# Processed by: cddbd v1.4PL0 Copyright (c) Steve Scherf et al.
# Submitted via: audiograbber 1.81.03
#
DISCID=90097f0c
DTITLE=Sergio Vega - La Rosita
DYEAR=1998
DGENRE=Latin
TTITLE0=La Rosita
TTITLE1=Mandame Un Telegrama
TTITLE2=Con La Luz De Un Rayo
TTITLE3=Piel De Angel
TTITLE4=Un Gato En La Oscuridad
TTITLE5=Que Saquen El Perico
TTITLE6=Comprendo Tu Pena
TTITLE7=Si Me Dejas Ahora
TTITLE8=El Capo Del Desierto
TTITLE9=Piensa Morena
TTITLE10=Hoy Se Va
TTITLE11=Enamorado
EXTD=Carlos_Mp3s
EXTT0=
EXTT1=
EXTT2=
EXTT3=
EXTT4=
EXTT5=
EXTT6=
EXTT7=
EXTT8=
EXTT9=
EXTT10=
EXTT11=
PLAYORDER=
